<?xml version="1.0" encoding="UTF-8" standalone="no"?>
<!-- Created with Inkscape (http://www.inkscape.org/) -->

<svg
   version="1.1"
   id="svg1"
   width="360.56006"
   height="359.23181"
   viewBox="0 0 360.56006 359.23181"
   sodipodi:docname="emergency-stop-green.svg"
   inkscape:version="1.3.2 (091e20e, 2023-11-25, custom)"
   xmlns:inkscape="http://www.inkscape.org/namespaces/inkscape"
   xmlns:sodipodi="http://sodipodi.sourceforge.net/DTD/sodipodi-0.dtd"
   xmlns="http://www.w3.org/2000/svg"
   xmlns:svg="http://www.w3.org/2000/svg">
  <defs
     id="defs1" />
  <sodipodi:namedview
     id="namedview1"
     pagecolor="#ffffff"
     bordercolor="#000000"
     borderopacity="0.25"
     inkscape:showpageshadow="2"
     inkscape:pageopacity="0.0"
     inkscape:pagecheckerboard="true"
     inkscape:deskcolor="#d1d1d1"
     showgrid="false"
     inkscape:zoom="1.282"
     inkscape:cx="224.64899"
     inkscape:cy="153.27613"
     inkscape:window-width="1600"
     inkscape:window-height="837"
     inkscape:window-x="-8"
     inkscape:window-y="-8"
     inkscape:window-maximized="1"
     inkscape:current-layer="g1" />
  <g
     inkscape:groupmode="layer"
     inkscape:label="Image"
     id="g1"
     transform="translate(-5.7574202,-4.977379)">
    <g
       id="g17"
       transform="translate(-63.962554,-65.522621)">
      <path
         style="fill:#f3c137"
         d="m 94.723255,428.58675 c -6.585578,-1.78008 -15.505455,-8.17569 -18.939704,-13.5799 -6.148239,-9.675 -5.83366,-0.19959 -5.546196,-167.05626 L 70.5,95.5 73.101113,89.954369 C 76.813516,82.039443 81.204609,77.516894 88.814527,73.770544 L 95.457945,70.5 H 250 404.54205 l 6.64342,3.270544 c 7.60992,3.74635 12.00101,8.268899 15.71342,16.183825 L 429.5,95.5 v 154.52103 154.52102 l -3.29514,6.69338 C 422.55681,418.64568 418.38733,422.64676 410,426.78581 L 404.5,429.5 252,429.68895 c -121.9298,0.15107 -153.457548,-0.0699 -157.276745,-1.1022 z"
         id="path17" />
    </g>
    <ellipse
       style="fill:#d02420;fill-opacity:1;stroke:#000000;stroke-width:3.77517"
       id="path22"
       cx="187.59755"
       cy="183.69736"
       rx="95.556"
       ry="97.896103" />
    <ellipse
       style="fill:#808080;fill-opacity:1;stroke:#808080;stroke-width:3.77953;stroke-opacity:1"
       id="path23-3"
       cx="328.00989"
       cy="324.68073"
       rx="8.9703588"
       ry="8.1903276" />
    <ellipse
       style="fill:#808080;fill-opacity:1;stroke:#808080;stroke-width:3.77953;stroke-opacity:1"
       id="path23-8"
       cx="327.90692"
       cy="43.836723"
       rx="8.9703588"
       ry="8.1903276" />
    <ellipse
       style="display:inline;fill:#61f024;fill-opacity:1;stroke:#61ff61;stroke-width:3.77517;stroke-opacity:1"
       id="path22-8"
       cx="186.8492"
       cy="184.38275"
       rx="95.556"
       ry="97.896103" />
    <ellipse
       style="fill:#808080;fill-opacity:1;stroke:#808080;stroke-width:3.77953;stroke-opacity:1"
       id="path23-9"
       cx="44.200203"
       cy="324.74625"
       rx="8.9703588"
       ry="8.1903276" />
    <ellipse
       style="fill:#808080;fill-opacity:1;stroke:#808080;stroke-width:3.77953;stroke-opacity:1"
       id="path23"
       cx="44.851799"
       cy="44.071762"
       rx="8.9703588"
       ry="8.1903276" />
    <path
       style="fill:#000000;stroke-width:1.00217"
       d="m 41.91386,363.47739 c -9.7991,-0.40653 -12.91123,-0.92151 -16.6476,-2.75477 -7.49978,-3.67978 -12.64298,-8.76968 -16.2211298,-16.05305 l -3.28771,-6.69218 v -153.5 -153.500004 l 3.25626,-6.62657 C 12.8047,16.635996 18.24815,11.342346 26.22092,7.6170862 L 31.8704,4.9773866 h 154.16705 154.16704 l 6.65537,3.2421696 c 7.74834,3.7746198 13.06499,9.1945098 16.80644,17.1327898 l 2.65118,5.62504 V 183.47739 c 0,144.47392 -0.0955,152.77251 -1.81424,157.6778 -2.54712,7.26946 -6.91304,12.84352 -13.02844,16.6337 -10.46588,6.4865 0.30515,6.06174 -155.3939,6.12801 -78.16319,0.0333 -147.53836,-0.16451 -154.16704,-0.43951 z m 301.84388,-13.25637 c 3.96987,-2.36199 6.37134,-4.75307 8.74359,-8.70576 l 3.27052,-5.4494 -0.01,-151.04423 -0.0101,-151.044244 -2.36629,-5.05971 c -2.36392,-5.05461 -7.4728,-9.87084 -12.97761,-12.23422 -2.1519,-0.92387 -38.22476,-1.20379 -154.16704,-1.1963 l -151.35784,0.01 -5.13927,2.38262 c -5.08063,2.35544 -8.65782,6.07859 -11.81603,12.29819 -1.47586,2.90645 -1.6251,17.0671 -1.6251,154.202954 0,115.65628 0.28355,151.65733 1.21133,153.79966 2.30249,5.31668 6.88679,10.14959 12.06424,12.71846 l 5.19705,2.57859 h 151.75496 151.7545 z M 36.41386,339.29209 c -7.19942,-4.87128 -9.90926,-12.82138 -6.98742,-20.4996 3.48132,-9.14847 14.79819,-12.96605 23.45777,-7.91316 5.84987,3.41342 8.99208,9.33251 8.37096,15.76865 -0.83679,8.671 -6.48433,13.97072 -15.56152,14.60313 -4.84018,0.33721 -6.36045,0.0163 -9.27979,-1.95902 z m 12.45868,-10.38613 c 2.04682,-2.03797 2.01086,-5.29513 -0.084,-7.59983 -3.32311,-3.65616 -9.38558,-1.28478 -9.38558,3.67126 0,3.01697 2.49382,5.5 5.52391,5.5 1.30206,0 3.0776,-0.70714 3.94564,-1.57143 z m 113.06061,11.04919 C 128.68408,334.78089 98.40597,319.37917 74.55509,295.5081 44.43516,265.36268 28.3808,227.11326 28.36112,185.45116 28.34822,158.26775 32.90379,138.4609 44.53583,115.1255 60.41289,83.274046 84.90808,59.031426 117.29373,43.117836 c 22.61026,-11.11019 42.84269,-15.64715 69.72172,-15.63456 64.11576,0.03 121.74182,39.25995 146.12296,99.475634 13.71865,33.88186 14.11713,76.71255 1.04684,112.51848 -6.74653,18.48205 -20.99994,40.33846 -36.17497,55.47127 -31.14176,31.05514 -69.21177,46.69934 -112.97718,46.42598 -8.00965,-0.05 -18.40463,-0.6888 -23.09995,-1.41949 z m 53.73249,-11.86397 c 57.52218,-12.5695 102.98356,-57.87551 114.50514,-114.11379 3.36577,-16.4288 3.36577,-42.5712 0,-59 C 318.47129,97.870695 271.17795,51.425956 213.65695,40.554186 c -15.75623,-2.97801 -39.91901,-2.81476 -56.74552,0.38338 -50.96102,9.68595 -94.86549,49.01304 -111.12552,99.539824 -5.10375,15.85952 -5.80727,21.18988 -5.80727,44 0,23.52433 0.83285,29.38902 6.59905,46.4681 17.52361,51.90378 65.20578,91.45108 118.87067,98.5906 9.46672,1.25945 42.14408,0.31921 50.21728,-1.44491 z m -45.19555,-12.10819 c -28.93308,-3.58624 -53.39023,-14.92244 -75.32592,-34.91451 l -7.03042,-6.40748 3.91351,-4.03407 3.9135,-4.03407 5.62778,5.518 c 32.49827,31.86432 81.37403,42.20226 126.14925,26.68241 14.57054,-5.0504 32.26126,-16.12135 43.29381,-27.09352 l 5.12869,-5.10061 3.91042,3.99784 3.91043,3.99785 -7.03042,6.51792 c -10.18101,9.43885 -20.93635,16.69288 -33.8529,22.83236 -13.72146,6.52206 -26.40998,10.12515 -42.47736,12.06204 -13.87731,1.67288 -16.45564,1.67081 -30.13037,-0.0242 z m 5.5239,-30.95915 c -0.82858,-0.20143 -4.87052,-0.91318 -8.98207,-1.58168 -28.44534,-4.62496 -55.52234,-24.38653 -70.40149,-51.38104 -4.02157,-7.29614 -8.32737,-19.2739 -10.0956,-28.08373 -1.80651,-9.00052 -1.80651,-29.99948 0,-39 5.90684,-29.42952 24.79614,-54.82141 51.73132,-69.539664 7.32857,-4.00457 19.35811,-8.2917 28.20656,-10.05235 9.03963,-1.79869 30.12985,-1.79869 39.16948,0 34.54164,6.87304 63.82228,31.921464 75.69918,64.757594 4.19959,11.61064 5.64368,20.39607 5.64368,34.33442 0,13.9742 -1.44366,22.72271 -5.68423,34.44622 -11.27033,31.158 -38.21828,55.29555 -71.03932,63.63065 -6.9728,1.77079 -30.22475,3.44748 -34.24751,2.46958 z m 24.60647,-12.0123 c 15.01914,-2.67118 27.34872,-7.75998 38.16513,-15.75192 20.1861,-14.91494 31.77165,-33.5571 36.22069,-58.28223 1.81425,-10.08249 1.81718,-17.71599 0.0109,-28.5 -3.27275,-19.53972 -11.31626,-35.47787 -24.7855,-49.11229 -33.21915,-33.626504 -86.38633,-35.730274 -123.20173,-4.87495 -23.24437,19.48132 -35.28555,52.6764 -29.92138,82.48724 5.38053,29.90185 22.43226,52.72626 49.64041,66.4457 15.20779,7.66837 36.53249,10.67222 53.87143,7.58845 z m -18.07822,-21.27643 c -15.10417,-0.72872 -30.9635,-7.23303 -41.83433,-17.15732 -3.67522,-3.35522 -6.9519,-6.1004 -7.2815,-6.1004 -0.3296,0 -0.59928,1.40572 -0.59928,3.12383 v 3.12383 l -5.52273,-0.45601 c -3.03752,-0.2508 -5.7696,-0.70179 -6.0713,-1.00219 -0.30171,-0.3004 -0.10617,-2.51342 0.43454,-4.91782 0.5407,-2.4044 1.52033,-7.80928 2.17695,-12.01084 0.65662,-4.20156 1.56795,-8.24189 2.02518,-8.9785 0.68852,-1.10922 2.69474,-1.03005 11.67803,0.46084 16.92876,2.80954 15.66508,2.16913 14.87561,7.5388 -0.37342,2.53993 -0.98114,4.93345 -1.35047,5.31894 -0.36934,0.38548 -2.36596,0.32037 -4.43694,-0.14469 -2.07097,-0.46506 -3.76541,-0.50823 -3.76541,-0.0959 0,1.78788 11.23424,11.1032 16.66106,13.81519 9.18219,4.58869 16.20644,6.22544 26.68038,6.21692 10.96324,-0.009 18.71736,-2.02526 28.29317,-7.35718 l 6.39605,-3.5614 2.71095,4.12272 c 1.49102,2.26749 2.51251,4.63761 2.26997,5.26693 -0.63782,1.65494 -11.1419,7.01056 -18.70196,9.5354 -7.07018,2.36124 -16.73813,3.64003 -24.63797,3.25889 z m 50.3393,-32.56533 c -4.35534,-10.51179 -7.65461,-19.00566 -7.65461,-19.70651 0,-0.61161 7.44449,-3.357 9.34799,-3.44737 0.44609,-0.0212 1.60828,1.76061 2.58266,3.95953 l 1.7716,3.99804 1.68581,-4.92618 c 2.37422,-6.9378 2.25785,-22.14683 -0.23184,-30.29804 -4.12932,-13.51945 -14.00789,-26.1146 -25.70185,-32.76984 -2.76195,-1.57187 -5.1622,-2.95523 -5.33388,-3.07412 -0.67113,-0.46477 4.38911,-9.37405 5.33388,-9.39105 2.79996,-0.0504 12.9214,7.11566 19.7488,13.98231 8.48488,8.53366 14.31026,18.86607 17.46691,30.98084 2.19559,8.42636 2.19205,23.46549 -0.007,31.86062 -0.91657,3.49835 -1.45391,6.57231 -1.19407,6.83102 0.25985,0.25872 1.38535,-0.0161 2.50113,-0.61062 3.48563,-1.85738 4.6945,-1.21843 5.99558,3.16898 0.69318,2.3375 1.20431,4.7 1.13584,5.25 -0.12633,1.01492 -3.36588,2.43662 -17.18551,7.54194 l -7.69525,2.84284 z M 118.44736,189.80466 c -0.73547,-7.12744 0.54233,-17.74875 3.12812,-26.00148 6.58383,-21.01282 24.11028,-37.79445 46.28023,-44.31349 l 7.42906,-2.1845 -2.65842,-2.45437 c -1.46213,-1.3499 -2.65843,-2.79788 -2.65843,-3.21773 0,-1.29294 6.7975,-7.40254 7.80808,-7.01791 1.02687,0.39083 10.33444,8.1876 16.54833,13.86221 l 3.83262,3.5 -8.68936,10 c -4.77915,5.5 -9.00209,10.12153 -9.38431,10.27006 -0.38224,0.14853 -2.47558,-1.27248 -4.6519,-3.15782 l -3.95694,-3.42788 2.93982,-3.08175 c 1.61689,-1.69496 2.72739,-3.29326 2.46776,-3.55177 -0.90681,-0.90288 -13.4622,3.56789 -19.45359,6.9271 -7.44552,4.1745 -16.33402,13.13541 -20.58986,20.75759 -5.06362,9.06891 -7.02804,16.88953 -7.0368,28.01447 l -0.008,9.75 -3.26412,0.0136 c -1.79527,0.008 -4.21299,0.26728 -5.37271,0.57727 -1.92119,0.51352 -2.16204,0.0457 -2.7099,-5.26365 z m 187.10721,-29.10411 c 0,-4.11322 -5.30935,-20.0443 -9.69144,-29.07983 C 278.53541,95.892256 246.25506,71.831466 205.76367,64.463316 l -6.88893,-1.25357 0.60072,-3.61618 c 0.33039,-1.9889 0.60569,-4.17868 0.61177,-4.86618 0.0242,-2.73797 11.28708,-1.11121 27.12839,3.91832 33.56023,10.65518 62.68303,35.83779 77.86672,67.331684 5.12351,10.62715 9.54937,23.05812 10.92059,30.67283 0.72423,4.02186 0.63471,4.09401 -6.68206,5.38514 -3.31893,0.58567 -3.7663,0.42712 -3.7663,-1.33481 z M 63.55185,146.00188 c -1.90886,-0.69207 -3.61736,-1.69652 -3.79668,-2.23212 -0.37033,-1.1062 5.52824,-15.17841 9.53725,-22.75298 8.10118,-15.30628 25.08143,-34.294014 40.00952,-44.739644 12.98574,-9.08651 27.97996,-15.84285 46.10297,-20.77383 3.98415,-1.08402 26.04115,-4.00054 30.38145,-4.01723 2.06406,-0.008 2.25978,0.45648 2.25978,5.36218 v 5.37088 l -8.28585,0.6676 c -39.22461,3.16039 -70.98677,20.6229 -93.27594,51.282154 -5.42973,7.46872 -13.22663,22.32353 -15.6457,29.8085 -1.10874,3.4306 -2.41071,3.79233 -7.2868,2.02449 z m 257.06842,194.35206 c -8.80007,-3.49389 -12.56344,-14.64084 -7.79499,-23.08845 3.29658,-5.8401 9.50372,-9.16729 15.95148,-8.55043 8.75829,0.83792 14.0792,6.44202 14.71568,15.49889 0.33868,4.81924 0.0164,6.33293 -1.96753,9.23964 -4.8848,7.15706 -13.2791,9.9279 -20.90464,6.90035 z m 10.47337,-11.44798 c 5.07101,-5.04905 -2.31194,-12.56811 -7.63285,-7.77358 -3.67205,3.30878 -1.29036,9.34501 3.68721,9.34501 1.30207,0 3.07761,-0.70714 3.94564,-1.57143 z M 37.84668,59.070786 c -4.13318,-1.79251 -8.2617,-6.87995 -9.07165,-11.17872 -1.4461,-7.67499 1.12028,-13.75294 7.70728,-18.25318 2.85737,-1.95216 4.37918,-2.27188 9.21134,-1.93522 9.29967,0.6479 14.86802,6.02685 15.50983,14.98225 0.29941,4.17784 -0.10952,6.12901 -1.94308,9.27109 -4.24358,7.27202 -13.75957,10.4333 -21.41372,7.11378 z m 10.76743,-11.24839 c 3.67205,-3.30878 1.29036,-9.34501 -3.68721,-9.34501 -4.83282,0 -7.35705,6.03194 -3.94565,9.42857 2.04683,2.03797 5.31814,2.00216 7.63286,-0.0836 z m 270.5196,10.42648 c -5.78694,-3.34781 -8.73918,-8.90867 -8.26229,-15.56296 0.6418,-8.9554 6.21016,-14.33435 15.50982,-14.98225 4.84019,-0.33722 6.36046,-0.0163 9.2798,1.95901 1.92022,1.29927 4.55896,3.92659 5.86387,5.83851 1.98387,2.90671 2.30621,4.4204 1.96753,9.23964 -0.65072,9.25943 -6.05304,14.80369 -15.04736,15.44272 -4.19599,0.29811 -6.15564,-0.10905 -9.31137,-1.93467 z m 11.95993,-10.34292 c 3.4114,-3.39663 0.88717,-9.42857 -3.94564,-9.42857 -4.8887,0 -7.20268,5.49551 -3.86172,9.17126 2.03991,2.24432 5.69088,2.36465 7.80736,0.25731 z"
       id="path9" />
  </g>
</svg>
